# xmcd
#
# Track frame offsets:
#	150
#	11923
#	25898
#	39597
#	53898
#	62378
#	72566
#	83352
#	96973
#	109109
#	123935
#	135761
#	148790
#	159619
#	170785
#	181026
#	187925
#	195982
#	207530
#
# Disc length: 2871 seconds
#
# Revision: 0
# Processed by: cddbd v1.5PL3 Copyright (c) Steve Scherf et al.
# Submitted via: dBpowerAMP V4.0
#
DISCID=010b3513
DTITLE=GEORGE HARMONICA SMITH - HARMONICA ACE
DYEAR=1900
DGENRE=Blues
TTITLE0=Track01 Rocking
TTITLE1=Track02 Telephone Blues
TTITLE2=Track03 Blues In The Dark
TTITLE3=Track04 Blues Stay Away
TTITLE4=Track05 Have Myself A Ball
TTITLE5=Track06 I Found My Baby
TTITLE6=Track07 Oopin´Doopin´Doopin´(Alt.Take)
TTITLE7=Track08 California Blues (Alt Take)
TTITLE8=Track09 Down In New Orleans
TTITLE9=Track10 Early One Monday Morning
TTITLE10=Track11 Rockin´(Alt Take)
TTITLE11=Track12 Love Life
TTITLE12=Track13 Cross-eyed Suzie Lee
TTITLE13=Track14 You Don´t Love Me
TTITLE14=Track15 I Found My Baby
TTITLE15=Track16 Oopin´Doopin´Doopin
TTITLE16=Track17´California Blues
TTITLE17=Track18 Down In New Orleans
TTITLE18=Track19 Early One Monday Mornin
EXTD=
EXTT0=
EXTT1=
EXTT2=
EXTT3=
EXTT4=
EXTT5=
EXTT6=
EXTT7=
EXTT8=
EXTT9=
EXTT10=
EXTT11=
EXTT12=
EXTT13=
EXTT14=
EXTT15=
EXTT16=
EXTT17=
EXTT18=
PLAYORDER=
